<?xml version="1.0" encoding="UTF-8"?>
<svg id="Layer_6" data-name="Layer 6" xmlns="http://www.w3.org/2000/svg" viewBox="0 0 974.89 341.45">
  <defs>
    <style>
      .cls-1 {
        fill: #b72726;
      }

      .cls-2 {
        fill: #3c803d;
      }

      .cls-3 {
        fill: #347338;
      }

      .cls-4 {
        fill: #eaa825;
      }

      .cls-5 {
        fill: #d9d9d8;
      }

      .cls-5, .cls-6 {
        font-family: WinterPrincess, 'Winter Princess';
        font-size: 200px;
      }

      .cls-7 {
        fill: #ec9494;
      }

      .cls-8 {
        fill: #5a3f17;
      }

      .cls-9 {
        fill: #fccb5f;
      }

      .cls-10 {
        fill: #97d8e3;
      }

      .cls-6 {
        fill: #231f20;
      }

      .cls-11 {
        letter-spacing: -.04em;
      }

      .cls-12 {
        fill: #fbc331;
      }

      .cls-13 {
        fill: #284f66;
      }

      .cls-14, .cls-15 {
        fill: none;
        stroke: #d9d9d8;
        stroke-miterlimit: 10;
      }

      .cls-15 {
        stroke-width: 8px;
      }

      .cls-16 {
        fill: #991c1f;
      }

      .cls-17 {
        fill: #c32126;
      }

      .cls-18 {
        letter-spacing: 0em;
      }

      .cls-19 {
        fill: #266130;
      }
    </style>
  </defs>
  <text class="cls-6" transform="translate(-636.51 243.4)"><tspan x="0" y="0">S</tspan><tspan class="cls-18" x="53.2" y="0">n</tspan><tspan class="cls-11" x="102.4" y="0">a</tspan><tspan x="162.6" y="0">ck Tr</tspan><tspan class="cls-11" x="422.79" y="0">a</tspan><tspan x="483" y="0">ck</tspan></text>
  <path class="cls-17" d="m195.17,153.68c5.15-.49,5.84-1.39,10.04-1.15,5.07.28,6.09,1.7,11.23,1.81,3.95.09,4.54-.72,9.53-1.15,1.59-.14,7.5-.66,12.77.49,8.38,1.83,13.65,7.58,15.32,9.4,9.29,10.13,7.82,24.69,6.47,38.08-.7,6.95-3.51,27.65-17.87,45.82-4.52,5.72-10.99,13.7-18.55,13.19-3.63-.25-6.54-2.38-11.23-1.15-3.83,1-3.86,2.93-7.83,4.62-7.61,3.23-15.66-.42-16.17-.66-5.18-2.44-7.83-6.68-9.36-9.23-13.01-21.71-19.75-32.97-22.47-53.08-2.12-15.69-4.58-33.94,5.96-42.03,2.19-1.68,7.93-5.23,15.32-5.77,6.25-.46,8.31,1.63,16.85.82Z"/>
  <path class="cls-16" d="m198,164.43c.17,1.34,7.99,1.71,14.49,1.09,8.75-.84,16.29-3.58,16.15-4.28-.15-.75-8.74,3.28-18.38,1.09-1.22-.28-5.05-1.25-9.19.19-.4.14-3.17,1.1-3.06,1.91Z"/>
  <path class="cls-7" d="m233.68,161.04c.03.19,2.38-.63,5.3.06,3.35.8,5.51,3.14,7.21,4.98,1.84,1.99,4.56,4.94,5.49,7.53.07.2.27.77.51.77.48-.01.96-2.27.89-4.02-.15-3.86-3.06-6.56-3.7-7.15-3.04-2.82-6.59-3.23-8.04-3.38-4.19-.43-7.7.98-7.66,1.21Z"/>
  <path class="cls-1" d="m207.93,214.15c5.94-1.75,12.06-6.52,15.58-12.51,3.92-6.64,5.13-15.59,5.19-16.09.65-5.06.18-8.18,1.36-8.55,1.37-.44,3.45,3.33,8.16,11.36,9.5,16.19,10.58,17.11,11.87,21.7,2.29,8.12,1.66,14.95,1.48,16.6-1.47,13.76-10.4,30.86-22.64,33.45-4.56.96-8.67-.29-16.7,2.55-4.22,1.49-4.05,2.18-7.55,3.19-2.01.58-10.33,2.85-18.8-1.02-5.39-2.47-8.5-6.35-10.02-8.3-12-15.36-14.25-46.79-4.08-52.09,8.87-4.62,19.82,14.51,36.12,9.7Z"/>
  <path class="cls-19" d="m280.75,125.53c.36-.98-1.66-2.58-4.26-4.49-7.01-5.16-10.52-7.73-14.46-9.33-3.64-1.47-6.66-2.7-10.98-2.83-1.75-.05-7.54-.05-13.43,3.33-5.15,2.96-9.11,7.76-10.44,10.14-.25.44-1.09,2.03-2.7,3.74-.45.48-1.13,1.19-2.12,1.91-2.81,2.05-5.48,2.25-5.44,3.02.02.33.52.54.79.67,2.43,1.09,2.28,1.94,5.46,3.82,6.22,3.68,12.06,4.85,12.06,4.85,8.09,1.62,14.71-.31,17.36-1.11,7.66-2.33,14.12-6.97,14.43-7.19,3.53-2.57,5.88-5.1,10.24-5.62,1.52-.18,3.2-.11,3.5-.9Z"/>
  <path class="cls-19" d="m79.47,126.96c.32.78,2.98,14.88,8.94,24.64,2.54,4.16,7.32,11.99,16.34,14.68,6.37,1.9,11.97.37,16.6-.89,5.42-1.48,9.83-4.48,18.64-10.47,3.08-2.09,4.49-3.24,5.49-5.23,2.6-5.22-.14-11.33-1.02-13.28-5.18-11.51-18.24-15.26-20.68-15.96-6.77-1.94-12.25-1.44-18.26-.89,0,0-8.67.79-24,5.62-.73.23-.93.5-1.6.55-.14.01-.48.03-.6.23-.02.05-.05.13,0,.43.04.25.06.37.15.57Z"/>
  <path class="cls-3" d="m142.91,58.79c.28,1.85-.03,3.75,0,5.62.07,3.63-3.84,7.65-5.87,9.96-5.12,5.81-8.27,11.99-9.45,14.94-3.93,9.84-.34,19.82.38,21.83.45,1.25,5.44,14.5,18.13,19.53,6.08,2.41,12.86,2.51,15.83,2.55,6.53.1,7.85-1.08,12.77,0,5.31,1.17,6.61,3.17,11.23,2.94,1.04-.05,6.2-.32,8.04-3.57.71-1.25.51-2.21.51-5.36,0-4.99.5-5.63.51-8.81,0-2.1-.04-8.18-3.19-14.55-3.39-6.86-7.8-8.86-9.57-11.11-.06-.07-.23-.3-.51-.34-.72-.1-1.45,1.18-1.79,1.74-1.94,3.3-1.67,1.73-3.36,4.98-2.3,4.43-3.08,7.89-3.53,7.79-.11-.03-.17-.51-.3-1.49-.18-1.42-.21-2.09-.21-2.09-.14-2.89-.26-7.14-.51-9.4-.38-3.37-1.43-5.85-2.04-7.28-.67-1.56-1.76-3.7-7.15-10.13-2.98-3.55-2.07-2.21-7.57-8.51,0,0-2.82-3.23-9.19-9.28,0,0-.42-.4-1.46-1.14-1.26-.9-1.49-.85-1.6-.8-.4.21-.2,1.32-.1,1.98Z"/>
  <path class="cls-2" d="m181.34,92.49c-.7-.02-1.81,1.56-4.02,4.72-2.08,2.98-3.52,5.03-4.66,8.11-2.14,5.77-1.64,10.82-1.34,13.53.31,2.84.5,4.51,1.6,6.45,2.04,3.6,5.88,5.13,8.11,6.06,2.35.98,3.52,1.47,4.28,1.21,6.33-2.19,1.03-39.94-3.96-40.09Z"/>
  <path class="cls-19" d="m241.98,85.21c-1.74.15-2.62,2.63-4.02,5.68-2.65,5.78-6.67,10.83-9.96,16.28-3.76,6.21-5.68,9.38-8.11,12.51-4.95,6.38-8.05,8.51-8.87,9.06-1.21.8-5.38,3.46-11.11,4.47-12.48,2.19-23.13-5.06-29.38-9.32-2.26-1.54-5.86-4.03-9.66-8.3-1.27-1.43-6.56-7.55-9.83-17.23-3.02-8.94-2.87-16.62-2.73-17.61,0-.07.07-.5.01-.51-.14-.04-.85,2.31-1.02,2.89-1.87,6.22.98,16.21.98,16.21,1.05,3.68,2.98,10.24,8.26,17.32,1.21,1.62,11.43,14.94,29.36,19.11,7.58,1.76,12.6.98,13.83.77,8.1-1.39,13.32-5.76,13.72-6.22.03-.03.24-.28.29-.26.07.04-.31.72-.45.96-1.54,2.74-3.38,4.44-3.38,4.44-2.02,1.86-2.94,1.58-8.52,4.53-2.28,1.2-1.72,1.03-3.83,2.14-2.65,1.38-5.01,3.44-7.88,4.24-.08.02-.42.11-.45.29-.02.16.25.3.51.51.25.21.26.29.8,1.05.7.99.62.75,1.09,1.44.4.59.53.87.8.89.3.02.55-.3.64-.41.71-.88,1.86-1.26,2.78-1.91,1.4-1.01,2.43-1.36,5.27-3.03.84-.5,6.52-3.84,7.76-5.52.05-.07.28-.39.38-.35.11.05.06.51-.38,1.95-.54,1.77-.81,2.65-1.56,4.24-.99,2.11-1.11,4.46-1.34,9.16-.16,3.34.02,6.48-.32,7.47,0,0-.03.09-.01.2.22,1.05,4.61.39,4.95.09.06-.05.1-.12.1-.12.12-.2.05-.44.04-.49-.24-1.04.05-2.13-.06-3.19-.22-1.98-.33-7-.26-8.74.17-3.87,1.91-6.67,3.73-9.67,8.11-13.31,22.62-38.16,24.37-41.24.17-.29.34-.61.64-1.06,3.18-4.88,6.78-4.95,7.26-7.32.47-2.32-2.32-5.54-4.4-5.36Z"/>
  <path class="cls-2" d="m278.62,123.78c.37-2.39-13.08-8.33-26.96-6.73-6.67.77-15.95,3.56-15.72,5.54.46,4.11,42.06,5.27,42.69,1.19Z"/>
  <path class="cls-2" d="m258.61,128.37c-.27-1.74-35.02,1.57-34.98,3.16.02.69,6.6,1.03,8.24,1.11,14.08.71,26.91-3.2,26.74-4.27Z"/>
  <path class="cls-2" d="m115.21,147.51c-6.43,1.2-17.93,3.84-17.74,5.23.1.75,3.56.86,4.72.89,10.85.33,20.47-5.9,20.04-7.02-.15-.39-2.44.04-7.02.89Z"/>
  <path class="cls-2" d="m88.53,130.91c-.61,1.07,7.53,8.13,17.87,12.64,12.12,5.28,26.94,6.89,26.94,6.89h0s-43.51-21.82-44.81-19.53Z"/>
  <path class="cls-2" d="m106.79,127.85c-1.05,1.13,13.12,15.2,17.62,19.53,1.33,1.28,1.56,1.47,1.66,1.4.64-.45-4.91-12.05-15.45-19.02-1.52-1.01-3.47-2.3-3.83-1.91Z"/>
  <path class="cls-13" d="m190.23,148.11c-.42-.12-1.96-.44-2.72-1.7-.66-1.08-.34-2.2-.34-2.89.02-3.18-6.45-6.81-12.26-7.83-8.7-1.53-15.86,2.82-17.87,4.09-5.19,3.26-5.39,5.69-11.74,11.74-1.36,1.29-7.42,6.96-14.81,10.89-10.23,5.44-19.68,5.78-29.11,6.13-14.61.53-21.92.8-27.91-3.57-2.12-1.55-5.69-4.8-9.02-3.74-2.66.84-3.7,3.95-3.74,4.09-1.25,3.92,1.56,8.2,4.26,11.57,15.6,19.56,35.23,27.06,35.23,27.06,14.74,5.63,27.23,5.79,30.3,5.79,4.07,0,38.21-.54,57.7-24.68,3.28-4.06,10.55-13.31,9.02-23.49-.62-4.11-3.27-12.43-6.98-13.45Z"/>
  <path class="cls-10" d="m168.79,140.28c-3.21-.25-5.79,1.59-6.64,2.21-7.74,5.68-11.61,8.53-13.45,10.21,0,0-5.93,5.45-14.81,10.72-17.97,10.66-42.91,8.44-55.32,3.23-1.59-.67-7.17-3.14-7.49-2.55-.25.46,2.84,2.6,4.09,3.4,6.33,4.1,13.51,5.17,20.26,5.45,8.67.35,19.62.8,32.34-4.43,9.46-3.89,6.85-5.55,24.51-15.49,10-5.63,19.69-10.07,19.06-11.91-.23-.67-1.76-.79-2.55-.85Z"/>
  <path class="cls-10" d="m81.81,172.62c-.59,1.23,8.04,6.96,16,10.38,11.86,5.1,22.08,5.03,25.19,4.94,11.01-.35,18.95-3.8,24.17-6.13,7.14-3.19,13.38-5.97,18.89-12.26,4.07-4.64,4.5-7.48,9.19-10.21,2.95-1.72,6.13-2.54,9.19-6.13,1.23-1.44,2.96-3.94,2.38-4.6-.71-.81-4.76,1.36-7.66,3.57-2.92,2.22-4.43,4.29-5.96,6.13,0,0-2.17,2.62-10.38,9.87-6.72,5.93-18.5,12.21-27.4,14.64-26.33,7.19-52.58-12.39-53.62-10.21Z"/>
  <path class="cls-8" d="m60.03,178.76c-2.14,1.29-3.44,2.07-3.54,3.29-.07.85.47,1.53,2.36,3.48,2.65,2.73,3.09,2.94,4.21,4.15,3.33,3.57,3.22,5.69,6.38,7.4.76.41,1.34.73,2.2.86,5.03.78,11.28-6.02,10.85-11.62-.05-.65-.2-2.65-1.6-3.64-1.3-.93-2.43-.08-4.88-.48-1.1-.18-2.67-1.05-5.78-2.78-3.84-2.14-4.27-2.62-5.55-2.62-1.43,0-2.51.65-4.66,1.95Z"/>
  <path class="cls-12" d="m208.79,187.6c-2.57-.3-3.53,2.82-7.32,3.4-2.55.4-4.24-.69-6.47-1.53-7.61-2.86-15.44-.5-18.21.34-4.74,1.43-5.31,3.13-12.77,8-.81.53-9.44,6.13-16.85,9.02-15.46,6.04-30.32,2.15-43.06-1.19-8.76-2.29-12-4.43-14.3-6.81-2.95-3.05-7.86-10.13-7.83-13.79,0-.22.03-1.04-.51-1.62-1.05-1.14-3.83-.88-4.51.34-.16.28-.1.9,0,2.13.11,1.31.27,1.86,0,2.64-.15.44-.32.94-.68,1.02-.69.16-1.11-1.42-2.64-1.79-.23-.06-.75-.17-1.28.09-.05.03-.71.36-.85,1.02-.14.67.42.97.94,2.3.2.51.4,1.02.43,1.7.05,1.11-.4,2.05-.6,2.47-.4.83-.76,1.1-.77,1.79,0,.14,0,.6.26,1.02.49.8,1.61.94,2.13,1.02,0,0,1.27.21,4.51,1.96,2.04,1.1,3.06,2.91,4,4.6,2.03,3.63,2,6.46,2.72,11.06,0,0,.16,1.01,2.55,10.64,3.42,13.74,22.36,26.95,23.4,27.66,15.44,10.57,30.83,12.17,36.26,12.51,7.25.46,22.71,1.44,37.96-8.17,0,0,16.8-10.6,23.32-32.68,1.65-5.6.27-8.53-.17-9.36-1.21-2.29-2.83-1.93-4.26-4.09-2.34-3.53-1.84-9.62,1.19-13.11,3.14-3.61,7.26-2.45,8.17-5.28.88-2.73-1.93-6.99-4.77-7.32Z"/>
  <path class="cls-9" d="m87.43,206.83c-1.25,1.79,8.08,10.65,14.64,16,9.29,7.57,18.14,14.78,32,17.87,12.98,2.9,23.57.67,30.47-.85,0,0,14.2-2.77,28.77-12.43.44-.29,1.65-1.1,1.53-1.36-.22-.47-4.45,1.07-6.64,1.87-13.21,4.83-19.81,7.25-20.43,7.49-9.57,3.77-21.94,3.8-30.98,1.02-18.06-5.55-31.68-25.06-45.96-29.45-2.17-.67-3.1-.6-3.4-.17Z"/>
  <path class="cls-9" d="m192.79,194.23c.18.59-4.09,1.71-9.87,5.19-6.58,3.96-7.64,6.46-13.11,10.21-5.7,3.91-10.87,5.52-14.72,6.72-10.81,3.37-19.04,2.67-32.43,1.53-.78-.07-10.68-.98-16.94-5.28-.3-.2-2.71-1.86-2.55-2.13.13-.22,1.86.62,4.09,1.53,0,0,1.83.75,7.4,2.64,2.1.71,13.02,3.87,26.55,2.13,2.52-.32,23.17-3.18,33.28-14.13.95-1.03,3.85-4.34,8.77-6.55,4.56-2.05,9.34-2.48,9.53-1.87Z"/>
  <path class="cls-4" d="m204.96,214.43c.03.08-.44.33-.56.39-3.36,1.8-8.77,6.26-18.66,11.43-9.39,4.91-14.08,7.37-20.75,8.58-7.23,1.32-13.06.67-17.44.19-8.89-.98-12.91-3.46-18.33-4.39-2.43-.41-3.54-.93-5.77-1.95-1-.46-1.06-.56-1.05-.62.1-.77,12.36,1.81,23.86,1.67,13.64-.17,26.44-4.54,52.05-13.3,1.27-.43,6.57-2.26,6.66-2Z"/>
  <circle class="cls-15" cx="177.23" cy="170.57" r="161.54"/>
  <g>
    <path class="cls-14" d="m88.62,253.72c8.73,10.29,35.77,39.89,72.51,45.8,16.76,2.69,32.67,0,35.06-.42,7.08-1.25,19.4-3.54,33.7-11.76,16.78-9.65,28.42-22.96,35.74-33.19"/>
    <path class="cls-14" d="m102.57,281.3c-9.5-6.95-24.23-19.63-36.09-39.83-8.55-14.57-12.77-28.22-14.98-38.13"/>
    <path class="cls-14" d="m32.79,201.72c2.72,13.62,10.26,41.72,33.36,68.09,32.77,37.4,74.3,45.58,85.79,47.66,44.01,7.98,78.05-5.97,84.77-8.85,42.84-18.34,63.71-52.17,70.81-65.36,8.22-15.27,12.22-29.31,14.3-39.15"/>
    <path class="cls-14" d="m305.13,204.02c-3.03,10.5-8.36,24.72-18.04,39.83-11.06,17.27-23.55,29.07-32.68,36.43"/>
  </g>
  <circle class="cls-14" cx="39.09" cy="183.17" r="2.89"/>
  <circle class="cls-14" cx="316.45" cy="183.34" r="2.89"/>
  <path class="cls-14" d="m322.4,137.18c-2.72-13.37-10.26-40.96-33.36-66.86-32.77-36.72-74.3-44.75-85.79-46.8-44.01-7.84-78.05,5.87-84.77,8.69-42.84,18.01-63.71,51.23-70.81,64.18-8.22,15-12.22,28.78-14.3,38.44"/>
  <text class="cls-5" transform="translate(358.38 243.4)"><tspan x="0" y="0">S</tspan><tspan class="cls-18" x="53.2" y="0">n</tspan><tspan class="cls-11" x="102.4" y="0">a</tspan><tspan x="162.6" y="0">ck Tr</tspan><tspan class="cls-11" x="422.79" y="0">a</tspan><tspan x="483" y="0">ck</tspan></text>
</svg>